<?xml version="1.0" encoding="utf-8"?>
<!-- Generator: Adobe Illustrator 21.0.0, SVG Export Plug-In . SVG Version: 6.00 Build 0)  -->
<svg version="1.1" id="Layer_1" xmlns="http://www.w3.org/2000/svg" xmlns:xlink="http://www.w3.org/1999/xlink" x="0px" y="0px"
	 viewBox="0 0 67 43" style="enable-background:new 0 0 67 43;" xml:space="preserve">
<style type="text/css">
	.st0{fill:#B0BEC5;}
</style>
<path class="st0" d="M31.6,31.6l-3.7,2.1l-5.6,3.2L16.7,40l-4.5,2.6l0,0c-0.3,0.2-0.7,0.3-1,0.3c-0.4,0-0.7-0.1-1-0.3l0,0L5.7,40
	l-4.5-2.6l0,0c-0.3-0.2-0.6-0.5-0.8-0.8C0.1,36.4,0,36,0,35.6v-5.2v-6.4v-6.4v-6.4V4.9V2.1c0-0.8,0.4-1.5,1.1-1.8
	c0.7-0.4,1.4-0.4,2.1,0l2.4,1.4l5.6,3.2l5.6,3.2l5.6,3.2l5.6,3.2l5.6,3.2l5.4,3.3l5.6,3.2l5.6,3.2l5.6,3.2v-6.4v-6.4L46.5,23
	l-1.9-1.1l-9.3-5.3l3.7-2.1l5.6-3.2l5.6-3.2L55.8,5l5.6-3.2l2.4-1.4l0,0c0.7-0.4,1.4-0.4,2.1,0S67,1.5,67,2.2V5v6.4v6.4v6.4v6.4v5.2
	c0,0.4-0.1,0.8-0.3,1.1c-0.2,0.3-0.4,0.6-0.8,0.8l0,0l-4.5,2.6l-4.5,2.6l0,0c-0.3,0.2-0.7,0.3-1,0.3c-0.4,0-0.7-0.1-1.1-0.3
	l-4.5-2.6l-5.6-3.2L39,33.6l-4.5-2.6l0,0l-1-0.6l-5.6-3.2l-5.6-3.2l-5.6-3.2l-5.6-3.2v6.4v6.4l5.6-3.2l3.7-2.1l1.9,1.1L31.6,31.6z"
	/>
</svg>
