<?xml version="1.0" encoding="utf-8"?>
<!-- Generator: Adobe Illustrator 21.0.0, SVG Export Plug-In . SVG Version: 6.00 Build 0)  -->
<svg version="1.1" id="Layer_1" xmlns="http://www.w3.org/2000/svg" xmlns:xlink="http://www.w3.org/1999/xlink" x="0px" y="0px"
	 viewBox="0 0 36 23" style="enable-background:new 0 0 36 23;" xml:space="preserve">
<style type="text/css">
	.st0{fill:#FFFFFF;}
</style>
<path class="st0" d="M17,16.8l-2,1.1l-3,1.7l-3,1.7l-2.4,1.4l0,0c-0.2,0.1-0.4,0.2-0.5,0.2c-0.2,0-0.4-0.1-0.5-0.2l0,0l-2.4-1.4
	l-2.4-1.4l0,0c-0.2-0.1-0.3-0.3-0.4-0.4C0.1,19.4,0,19.2,0,19v-2.8v-3.4V9.4V6V2.6V1.1c0-0.4,0.2-0.8,0.6-1c0.4-0.2,0.8-0.2,1.1,0
	L3,0.9l3,1.7l3,1.7L12,6l3,1.7l3,1.7l2.9,1.8l3,1.7l3,1.7l3,1.7v-3.4V9.5l-5,2.8l-1-0.6l-5-2.8l2-1.1L24,6l3-1.7l3-1.7L33,1l1.3-0.7
	l0,0C34.7,0,35,0,35.4,0.2s0.6,0.6,0.6,1v1.5v3.4v3.4v3.4v3.4v2.8c0,0.2-0.1,0.4-0.2,0.6c-0.1,0.2-0.2,0.3-0.4,0.4l0,0L33,21.5
	l-2.4,1.4l0,0C30.4,22.9,30.2,23,30,23c-0.2,0-0.4-0.1-0.6-0.2L27,21.5l-3-1.7L21,17.9l-2.4-1.4l0,0L18,16.2l-3-1.7l-3-1.7l-3-1.7
	L6,9.4v3.4v3.4l3-1.7l2-1.1l1,0.6L17,16.8z"/>
</svg>
